<svg width="35" height="35" viewBox="0 0 35 35" fill="none" xmlns="http://www.w3.org/2000/svg">
<path d="M5.53437 19.8494L6.55594 21.8619C5.85594 22.5509 5.46875 23.3012 5.46875 24.0625C5.46875 26.8756 10.7778 29.5312 17.5 29.5312C24.2222 29.5312 29.5312 26.8756 29.5312 24.0625C29.5312 23.3012 29.1419 22.5531 28.4441 21.8641L29.4853 19.8669C30.8962 21.0481 31.7188 22.4787 31.7188 24.0625C31.7188 28.4966 25.2744 31.7187 17.5 31.7187C9.72563 31.7187 3.28125 28.4966 3.28125 24.0625C3.28125 22.47 4.1125 21.035 5.53437 19.8494Z" fill="white"/>
<path d="M5.53437 13.2869L6.55594 15.2994C5.85594 15.9906 5.46875 16.7409 5.46875 17.5C5.46875 20.3131 10.7778 22.9687 17.5 22.9687C24.2222 22.9687 29.5312 20.3131 29.5312 17.5C29.5312 16.7387 29.1419 15.9906 28.4441 15.3016L29.4853 13.3044C30.8962 14.4856 31.7188 15.9162 31.7188 17.5C31.7188 21.9341 25.2744 25.1562 17.5 25.1562C9.72563 25.1562 3.28125 21.9341 3.28125 17.5C3.28125 15.9075 4.1125 14.4725 5.53437 13.2869Z" fill="white"/>
<path d="M17.5 18.5938C9.72563 18.5938 3.28125 15.3716 3.28125 10.9375C3.28125 6.50344 9.72563 3.28125 17.5 3.28125C25.2744 3.28125 31.7188 6.50344 31.7188 10.9375C31.7188 15.3716 25.2744 18.5938 17.5 18.5938ZM17.5 16.4062C24.2222 16.4062 29.5312 13.7506 29.5312 10.9375C29.5312 8.12437 24.2222 5.46875 17.5 5.46875C10.7778 5.46875 5.46875 8.12437 5.46875 10.9375C5.46875 13.7506 10.7778 16.4062 17.5 16.4062Z" fill="white"/>
</svg>
