<svg width="100" height="77" viewBox="0 0 179 77" fill="none" xmlns="http://www.w3.org/2000/svg">
<g opacity="0.5" clip-path="url(#clip0_2_370)">
<path d="M11.1875 71.5C11.1875 68.4624 8.68309 66 5.59375 66C2.50441 66 1.01809e-07 68.4624 6.55868e-08 71.5C2.93642e-08 74.5376 2.50441 77 5.59375 77C8.68309 77 11.1875 74.5376 11.1875 71.5Z" fill="#9E69A7"/>
<path d="M11.1875 38.5C11.1875 35.4624 8.68309 33 5.59375 33C2.50441 33 1.01809e-07 35.4624 6.55868e-08 38.5C2.93642e-08 41.5376 2.50441 44 5.59375 44C8.68309 44 11.1875 41.5376 11.1875 38.5Z" fill="#9E69A7"/>
<path d="M11.1875 5.5C11.1875 2.46243 8.68309 1.03545e-07 5.59375 6.67048e-08C2.50441 2.98648e-08 1.01809e-07 2.46243 6.55868e-08 5.5C2.93642e-08 8.53757 2.50441 11 5.59375 11C8.68309 11 11.1875 8.53757 11.1875 5.5Z" fill="#9E69A7"/>
<path d="M44.75 71.5C44.75 68.4624 42.2456 66 39.1562 66C36.0669 66 33.5625 68.4624 33.5625 71.5C33.5625 74.5376 36.0669 77 39.1562 77C42.2456 77 44.75 74.5376 44.75 71.5Z" fill="#9E69A7"/>
<path d="M78.3125 71.5C78.3125 68.4624 75.8081 66 72.7187 66C69.6294 66 67.125 68.4624 67.125 71.5C67.125 74.5376 69.6294 77 72.7187 77C75.8081 77 78.3125 74.5376 78.3125 71.5Z" fill="#9E69A7"/>
<path d="M111.875 71.5C111.875 68.4624 109.371 66 106.281 66C103.192 66 100.688 68.4624 100.688 71.5C100.688 74.5376 103.192 77 106.281 77C109.371 77 111.875 74.5376 111.875 71.5Z" fill="#9E69A7"/>
<path d="M145.438 71.5C145.438 68.4624 142.933 66 139.844 66C136.754 66 134.25 68.4624 134.25 71.5C134.25 74.5376 136.754 77 139.844 77C142.933 77 145.438 74.5376 145.438 71.5Z" fill="#9E69A7"/>
<path d="M179 71.5C179 68.4624 176.496 66 173.406 66C170.317 66 167.813 68.4624 167.813 71.5C167.813 74.5376 170.317 77 173.406 77C176.496 77 179 74.5376 179 71.5Z" fill="#9E69A7"/>
<path d="M44.75 38.5C44.75 35.4624 42.2456 33 39.1562 33C36.0669 33 33.5625 35.4624 33.5625 38.5C33.5625 41.5376 36.0669 44 39.1562 44C42.2456 44 44.75 41.5376 44.75 38.5Z" fill="#9E69A7"/>
<path d="M78.3125 38.5C78.3125 35.4624 75.8081 33 72.7187 33C69.6294 33 67.125 35.4624 67.125 38.5C67.125 41.5376 69.6294 44 72.7187 44C75.8081 44 78.3125 41.5376 78.3125 38.5Z" fill="#9E69A7"/>
<path d="M111.875 38.5C111.875 35.4624 109.371 33 106.281 33C103.192 33 100.688 35.4624 100.688 38.5C100.688 41.5376 103.192 44 106.281 44C109.371 44 111.875 41.5376 111.875 38.5Z" fill="#9E69A7"/>
<path d="M145.438 38.5C145.438 35.4624 142.933 33 139.844 33C136.754 33 134.25 35.4624 134.25 38.5C134.25 41.5376 136.754 44 139.844 44C142.933 44 145.438 41.5376 145.438 38.5Z" fill="#9E69A7"/>
<path d="M179 38.5C179 35.4624 176.496 33 173.406 33C170.317 33 167.813 35.4624 167.813 38.5C167.813 41.5376 170.317 44 173.406 44C176.496 44 179 41.5376 179 38.5Z" fill="#9E69A7"/>
<path d="M44.75 5.5C44.75 2.46243 42.2456 1.03545e-07 39.1562 6.67048e-08C36.0669 2.98647e-08 33.5625 2.46243 33.5625 5.5C33.5625 8.53757 36.0669 11 39.1562 11C42.2456 11 44.75 8.53757 44.75 5.5Z" fill="#9E69A7"/>
<path d="M78.3125 5.5C78.3125 2.46243 75.8081 1.03545e-07 72.7187 6.67048e-08C69.6294 2.98647e-08 67.125 2.46243 67.125 5.5C67.125 8.53757 69.6294 11 72.7187 11C75.8081 11 78.3125 8.53757 78.3125 5.5Z" fill="#9E69A7"/>
<path d="M111.875 5.5C111.875 2.46243 109.371 1.03545e-07 106.281 6.67048e-08C103.192 2.98648e-08 100.688 2.46243 100.688 5.5C100.688 8.53757 103.192 11 106.281 11C109.371 11 111.875 8.53757 111.875 5.5Z" fill="#9E69A7"/>
<path d="M145.438 5.5C145.438 2.46243 142.933 1.03545e-07 139.844 6.67048e-08C136.754 2.98647e-08 134.25 2.46243 134.25 5.5C134.25 8.53757 136.754 11 139.844 11C142.933 11 145.438 8.53757 145.438 5.5Z" fill="#9E69A7"/>
<path d="M179 5.5C179 2.46243 176.496 1.03545e-07 173.406 6.67048e-08C170.317 2.98647e-08 167.813 2.46243 167.813 5.5C167.813 8.53757 170.317 11 173.406 11C176.496 11 179 8.53757 179 5.5Z" fill="#9E69A7"/>
</g>
<defs>
<clipPath id="clip0_2_370">
<rect width="77" height="179" fill="white" transform="translate(0 77) rotate(-90)"/>
</clipPath>
</defs>
</svg>
