<svg width="61" height="100" viewBox="0 0 61 139" fill="none" xmlns="http://www.w3.org/2000/svg">
<g opacity="0.5" clip-path="url(#clip0_2_351)">
<path d="M4.35714 8.6875C6.76353 8.6875 8.71429 6.74274 8.71429 4.34375C8.71429 1.94476 6.76353 0 4.35714 0C1.95076 0 0 1.94476 0 4.34375C0 6.74274 1.95076 8.6875 4.35714 8.6875Z" fill="#9E69A7"/>
<path d="M30.5002 8.6875C32.9066 8.6875 34.8574 6.74274 34.8574 4.34375C34.8574 1.94476 32.9066 0 30.5002 0C28.0938 0 26.1431 1.94476 26.1431 4.34375C26.1431 6.74274 28.0938 8.6875 30.5002 8.6875Z" fill="#9E69A7"/>
<path d="M56.6428 8.6875C59.0492 8.6875 60.9999 6.74274 60.9999 4.34375C60.9999 1.94476 59.0492 0 56.6428 0C54.2364 0 52.2856 1.94476 52.2856 4.34375C52.2856 6.74274 54.2364 8.6875 56.6428 8.6875Z" fill="#9E69A7"/>
<path d="M4.35714 34.75C6.76353 34.75 8.71429 32.8052 8.71429 30.4062C8.71429 28.0073 6.76353 26.0625 4.35714 26.0625C1.95076 26.0625 0 28.0073 0 30.4062C0 32.8052 1.95076 34.75 4.35714 34.75Z" fill="#9E69A7"/>
<path d="M4.35714 60.8125C6.76353 60.8125 8.71429 58.8677 8.71429 56.4687C8.71429 54.0698 6.76353 52.125 4.35714 52.125C1.95076 52.125 0 54.0698 0 56.4687C0 58.8677 1.95076 60.8125 4.35714 60.8125Z" fill="#9E69A7"/>
<path d="M4.35714 86.875C6.76353 86.875 8.71429 84.9302 8.71429 82.5313C8.71429 80.1323 6.76353 78.1875 4.35714 78.1875C1.95076 78.1875 0 80.1323 0 82.5313C0 84.9302 1.95076 86.875 4.35714 86.875Z" fill="#9E69A7"/>
<path d="M4.35714 112.938C6.76353 112.938 8.71429 110.993 8.71429 108.594C8.71429 106.195 6.76353 104.25 4.35714 104.25C1.95076 104.25 0 106.195 0 108.594C0 110.993 1.95076 112.938 4.35714 112.938Z" fill="#9E69A7"/>
<path d="M4.35714 139C6.76353 139 8.71429 137.055 8.71429 134.656C8.71429 132.257 6.76353 130.312 4.35714 130.312C1.95076 130.312 0 132.257 0 134.656C0 137.055 1.95076 139 4.35714 139Z" fill="#9E69A7"/>
<path d="M30.5002 34.75C32.9066 34.75 34.8574 32.8052 34.8574 30.4062C34.8574 28.0073 32.9066 26.0625 30.5002 26.0625C28.0938 26.0625 26.1431 28.0073 26.1431 30.4062C26.1431 32.8052 28.0938 34.75 30.5002 34.75Z" fill="#9E69A7"/>
<path d="M30.5002 60.8125C32.9066 60.8125 34.8574 58.8677 34.8574 56.4687C34.8574 54.0698 32.9066 52.125 30.5002 52.125C28.0938 52.125 26.1431 54.0698 26.1431 56.4687C26.1431 58.8677 28.0938 60.8125 30.5002 60.8125Z" fill="#9E69A7"/>
<path d="M30.3571 86.6875C32.7635 86.6875 34.7143 84.7427 34.7143 82.3438C34.7143 79.9448 32.7635 78 30.3571 78C27.9508 78 26 79.9448 26 82.3438C26 84.7427 27.9508 86.6875 30.3571 86.6875Z" fill="#9E69A7"/>
<path d="M30.5002 112.938C32.9066 112.938 34.8574 110.993 34.8574 108.594C34.8574 106.195 32.9066 104.25 30.5002 104.25C28.0938 104.25 26.1431 106.195 26.1431 108.594C26.1431 110.993 28.0938 112.938 30.5002 112.938Z" fill="#9E69A7"/>
<path d="M30.5002 139C32.9066 139 34.8574 137.055 34.8574 134.656C34.8574 132.257 32.9066 130.312 30.5002 130.312C28.0938 130.312 26.1431 132.257 26.1431 134.656C26.1431 137.055 28.0938 139 30.5002 139Z" fill="#9E69A7"/>
<path d="M56.6428 34.75C59.0492 34.75 60.9999 32.8052 60.9999 30.4062C60.9999 28.0073 59.0492 26.0625 56.6428 26.0625C54.2364 26.0625 52.2856 28.0073 52.2856 30.4062C52.2856 32.8052 54.2364 34.75 56.6428 34.75Z" fill="#9E69A7"/>
<path d="M56.6428 60.8125C59.0492 60.8125 60.9999 58.8677 60.9999 56.4687C60.9999 54.0698 59.0492 52.125 56.6428 52.125C54.2364 52.125 52.2856 54.0698 52.2856 56.4687C52.2856 58.8677 54.2364 60.8125 56.6428 60.8125Z" fill="#9E69A7"/>
<path d="M56.6428 86.875C59.0492 86.875 60.9999 84.9302 60.9999 82.5313C60.9999 80.1323 59.0492 78.1875 56.6428 78.1875C54.2364 78.1875 52.2856 80.1323 52.2856 82.5313C52.2856 84.9302 54.2364 86.875 56.6428 86.875Z" fill="#9E69A7"/>
<path d="M56.6428 112.938C59.0492 112.938 60.9999 110.993 60.9999 108.594C60.9999 106.195 59.0492 104.25 56.6428 104.25C54.2364 104.25 52.2856 106.195 52.2856 108.594C52.2856 110.993 54.2364 112.938 56.6428 112.938Z" fill="#9E69A7"/>
<path d="M56.6428 139C59.0492 139 60.9999 137.055 60.9999 134.656C60.9999 132.257 59.0492 130.312 56.6428 130.312C54.2364 130.312 52.2856 132.257 52.2856 134.656C52.2856 137.055 54.2364 139 56.6428 139Z" fill="#9E69A7"/>
</g>
<defs>
<clipPath id="clip0_2_351">
<rect width="61" height="139" fill="white"/>
</clipPath>
</defs>
</svg>
