<svg width="106" height="46" viewBox="0 0 106 46" fill="none" xmlns="http://www.w3.org/2000/svg">
<path fill-rule="evenodd" clip-rule="evenodd" d="M25.3458 10.621L25.4091 10.6613C25.669 10.8421 25.9289 11.0319 26.1187 11.1369C28.7088 12.5638 30.9621 15.0247 32.8221 17.2712C37.2699 22.6485 42.0093 27.789 46.8413 32.8336C48.1951 34.2471 49.723 35.4954 51.1649 36.8174C51.592 37.2082 52.0237 37.5901 52.4554 37.9742C52.6452 38.1394 52.9504 38.5792 53.147 38.769C53.2871 38.9075 53.4249 38.9745 53.5154 39.0013C53.7459 39.0638 53.9289 39.0058 54.0736 38.883C54.1685 38.8048 54.2996 38.6574 54.2973 38.3627C54.2634 35.2631 52.7605 31.19 50.7309 26.9315C47.7499 20.6766 43.6479 14.0064 41.6681 9.49782C41.1482 8.31206 39.6679 6.07667 38.6373 4.02C38.1785 3.1089 37.7966 2.24245 37.6768 1.54572C38.07 1.96331 38.5107 2.52836 38.8113 2.80303C40.1108 3.9888 41.2205 5.36877 42.4455 6.62599C46.1701 10.4513 59.769 19.7477 64.436 22.4542C68.2104 24.6449 90.8812 35.089 105.398 36.0292C105.71 36.0492 105.978 35.817 105.999 35.5088C106.019 35.2007 105.782 34.9349 105.472 34.9148C91.1298 33.9858 68.737 23.6556 65.0078 21.4917C60.3928 18.8143 46.9408 9.63397 43.2614 5.85336C42.0206 4.57826 40.8929 3.1848 39.5775 1.9834C39.1029 1.55018 38.2825 0.471621 37.7898 0.163454C37.5118 -0.0107286 37.2564 -0.0263269 37.0733 0.0272658C36.8496 0.0942596 36.61 0.261736 36.54 0.692721C36.427 1.39838 36.6733 2.38987 37.1411 3.48408C38.1175 5.76183 40.0272 8.56434 40.6329 9.94215C42.615 14.4575 46.7216 21.1411 49.7094 27.4071C51.3728 30.8997 52.6949 34.2538 53.0633 37.0117C52.6836 36.6767 52.3085 36.3395 51.9333 35.9979C50.5072 34.6937 48.9997 33.4633 47.6618 32.0676C42.8501 27.0409 38.1265 21.9205 33.6968 16.5655C31.7508 14.2141 29.3777 11.6549 26.6702 10.161C26.2882 9.95108 25.6102 9.40394 25.226 9.29229C24.9797 9.22083 24.7718 9.25442 24.6203 9.33481C24.4327 9.43084 24.2632 9.60501 24.2361 9.94444C24.1208 11.3334 24.5457 13.6759 25.2599 16.4092C26.8849 22.6171 29.9744 30.9019 31.0954 34.3431C31.848 36.6544 32.7001 38.9477 33.3781 41.2813C33.412 41.3974 33.8708 43.6618 34.0878 44.7404C33.4527 44.5238 32.5961 44.0771 31.6266 43.5278C28.2206 41.5939 23.592 38.2599 22.1749 37.2662C19.456 35.3614 16.7937 33.3919 14.0296 31.5496C9.66766 28.6421 5.21533 25.8797 0.885029 22.9254C0.629641 22.7489 0.277076 22.8137 0.10079 23.066C-0.077756 23.3206 -0.0122403 23.6689 0.243148 23.8431C4.57571 26.802 9.03257 29.5666 13.399 32.4763C16.1541 34.3119 18.8096 36.2769 21.5217 38.1773C22.9524 39.18 27.6262 42.543 31.0638 44.4947C32.6391 45.3902 33.986 45.9753 34.7025 45.9999C34.9014 46.0043 35.3037 45.8971 35.3308 45.3545C35.3647 44.66 34.5126 41.1384 34.4652 40.9731C33.7826 38.6284 32.9261 36.3239 32.1712 34.0015C31.0547 30.5715 27.9743 22.3157 26.3561 16.13C25.773 13.9036 25.3729 11.9542 25.3458 10.621Z" fill="#9E69A7"/>
</svg>
