<svg width="116" height="99" viewBox="0 0 116 99" fill="none" xmlns="http://www.w3.org/2000/svg">
<path fill-rule="evenodd" clip-rule="evenodd" d="M40.8949 58.5069C40.8793 57.3648 40.7309 56.2129 40.4342 55.0531C39.3937 50.9829 34.7516 48.3699 29.8109 47.7555C24.872 47.1411 19.736 48.5392 17.7566 52.0797C16.6243 54.1039 16.4682 55.8486 16.9308 57.3195C17.3915 58.7826 18.4846 59.9956 19.9682 60.9407C24.1047 63.5735 31.3491 64.111 34.654 63.0103C36.1826 62.5003 37.6759 61.886 39.1302 61.183C38.2986 65.7848 35.2006 70.1445 31.066 74.0729C22.0804 82.611 8.13652 89.0914 0.542808 91.474C0.134816 91.602 -0.0916476 92.0391 0.0352396 92.4507C0.162127 92.8622 0.595488 93.0926 1.00348 92.9646C8.74751 90.5347 22.9628 83.9165 32.126 75.2091C36.8599 70.7116 40.2331 65.6489 40.809 60.3264C51.5105 54.5588 60.2989 44.0949 67.8126 35.289C68.0917 34.9641 68.0547 34.4698 67.7306 34.1882C67.4066 33.9086 66.9185 33.9441 66.6393 34.2709C59.4321 42.7165 51.0674 52.763 40.8949 58.5069ZM39.3391 59.3438C39.3977 58.0599 39.2727 56.7564 38.935 55.441C38.035 51.9182 33.8985 49.8349 29.6215 49.3032C26.9998 48.9783 24.3039 49.2462 22.1898 50.1992C20.8604 50.7978 19.7652 51.6662 19.1054 52.8477C18.2387 54.3974 18.0513 55.7226 18.4065 56.847C18.7618 57.9792 19.6443 58.8889 20.7941 59.6195C24.5636 62.0198 31.1597 62.5299 34.1679 61.5276C35.9424 60.9368 37.6642 60.2004 39.3391 59.3438Z" fill="#9E69A7"/>
<path fill-rule="evenodd" clip-rule="evenodd" d="M40.8949 58.5069C40.8793 57.3648 40.7309 56.2129 40.4342 55.0531C39.3937 50.9829 34.7516 48.3699 29.8109 47.7555C24.872 47.1411 19.736 48.5392 17.7566 52.0797C16.6243 54.1039 16.4682 55.8486 16.9308 57.3195C17.3915 58.7826 18.4846 59.9956 19.9682 60.9407C24.1047 63.5735 31.3491 64.111 34.654 63.0103C36.1826 62.5003 37.6759 61.886 39.1302 61.183C38.2986 65.7848 35.2006 70.1445 31.066 74.0729C22.0804 82.611 8.13652 89.0914 0.542808 91.474C0.134816 91.602 -0.0916476 92.0391 0.0352396 92.4507C0.162127 92.8622 0.595488 93.0926 1.00348 92.9646C8.74751 90.5347 22.9628 83.9165 32.126 75.2091C36.8599 70.7116 40.2331 65.6489 40.809 60.3264C51.5105 54.5588 60.2989 44.0949 67.8126 35.289C68.0917 34.9641 68.0547 34.4698 67.7306 34.1882C67.4066 33.9086 66.9185 33.9441 66.6393 34.2709C59.4321 42.7165 51.0674 52.763 40.8949 58.5069ZM39.3391 59.3438C39.3977 58.0599 39.2727 56.7564 38.935 55.441C38.035 51.9182 33.8985 49.8349 29.6215 49.3032C26.9998 48.9783 24.3039 49.2462 22.1898 50.1992C20.8604 50.7978 19.7652 51.6662 19.1054 52.8477C18.2387 54.3974 18.0513 55.7226 18.4065 56.847C18.7618 57.9792 19.6443 58.8889 20.7941 59.6195C24.5636 62.0198 31.1597 62.5299 34.1679 61.5276C35.9424 60.9368 37.6642 60.2004 39.3391 59.3438Z" fill="#9E69A7" fill-opacity="0.2"/>
<path fill-rule="evenodd" clip-rule="evenodd" d="M40.8949 58.5069C40.8793 57.3648 40.7309 56.2129 40.4342 55.0531C39.3937 50.9829 34.7516 48.3699 29.8109 47.7555C24.872 47.1411 19.736 48.5392 17.7566 52.0797C16.6243 54.1039 16.4682 55.8486 16.9308 57.3195C17.3915 58.7826 18.4846 59.9956 19.9682 60.9407C24.1047 63.5735 31.3491 64.111 34.654 63.0103C36.1826 62.5003 37.6759 61.886 39.1302 61.183C38.2986 65.7848 35.2006 70.1445 31.066 74.0729C22.0804 82.611 8.13652 89.0914 0.542808 91.474C0.134816 91.602 -0.0916476 92.0391 0.0352396 92.4507C0.162127 92.8622 0.595488 93.0926 1.00348 92.9646C8.74751 90.5347 22.9628 83.9165 32.126 75.2091C36.8599 70.7116 40.2331 65.6489 40.809 60.3264C51.5105 54.5588 60.2989 44.0949 67.8126 35.289C68.0917 34.9641 68.0547 34.4698 67.7306 34.1882C67.4066 33.9086 66.9185 33.9441 66.6393 34.2709C59.4321 42.7165 51.0674 52.763 40.8949 58.5069ZM39.3391 59.3438C39.3977 58.0599 39.2727 56.7564 38.935 55.441C38.035 51.9182 33.8985 49.8349 29.6215 49.3032C26.9998 48.9783 24.3039 49.2462 22.1898 50.1992C20.8604 50.7978 19.7652 51.6662 19.1054 52.8477C18.2387 54.3974 18.0513 55.7226 18.4065 56.847C18.7618 57.9792 19.6443 58.8889 20.7941 59.6195C24.5636 62.0198 31.1597 62.5299 34.1679 61.5276C35.9424 60.9368 37.6642 60.2004 39.3391 59.3438Z" fill="#9E69A7" fill-opacity="0.2"/>
<path fill-rule="evenodd" clip-rule="evenodd" d="M40.8949 58.5069C40.8793 57.3648 40.7309 56.2129 40.4342 55.0531C39.3937 50.9829 34.7516 48.3699 29.8109 47.7555C24.872 47.1411 19.736 48.5392 17.7566 52.0797C16.6243 54.1039 16.4682 55.8486 16.9308 57.3195C17.3915 58.7826 18.4846 59.9956 19.9682 60.9407C24.1047 63.5735 31.3491 64.111 34.654 63.0103C36.1826 62.5003 37.6759 61.886 39.1302 61.183C38.2986 65.7848 35.2006 70.1445 31.066 74.0729C22.0804 82.611 8.13652 89.0914 0.542808 91.474C0.134816 91.602 -0.0916476 92.0391 0.0352396 92.4507C0.162127 92.8622 0.595488 93.0926 1.00348 92.9646C8.74751 90.5347 22.9628 83.9165 32.126 75.2091C36.8599 70.7116 40.2331 65.6489 40.809 60.3264C51.5105 54.5588 60.2989 44.0949 67.8126 35.289C68.0917 34.9641 68.0547 34.4698 67.7306 34.1882C67.4066 33.9086 66.9185 33.9441 66.6393 34.2709C59.4321 42.7165 51.0674 52.763 40.8949 58.5069ZM39.3391 59.3438C39.3977 58.0599 39.2727 56.7564 38.935 55.441C38.035 51.9182 33.8985 49.8349 29.6215 49.3032C26.9998 48.9783 24.3039 49.2462 22.1898 50.1992C20.8604 50.7978 19.7652 51.6662 19.1054 52.8477C18.2387 54.3974 18.0513 55.7226 18.4065 56.847C18.7618 57.9792 19.6443 58.8889 20.7941 59.6195C24.5636 62.0198 31.1597 62.5299 34.1679 61.5276C35.9424 60.9368 37.6642 60.2004 39.3391 59.3438Z" fill="#9E69A7" fill-opacity="0.2"/>
<path fill-rule="evenodd" clip-rule="evenodd" d="M40.8949 58.5069C40.8793 57.3648 40.7309 56.2129 40.4342 55.0531C39.3937 50.9829 34.7516 48.3699 29.8109 47.7555C24.872 47.1411 19.736 48.5392 17.7566 52.0797C16.6243 54.1039 16.4682 55.8486 16.9308 57.3195C17.3915 58.7826 18.4846 59.9956 19.9682 60.9407C24.1047 63.5735 31.3491 64.111 34.654 63.0103C36.1826 62.5003 37.6759 61.886 39.1302 61.183C38.2986 65.7848 35.2006 70.1445 31.066 74.0729C22.0804 82.611 8.13652 89.0914 0.542808 91.474C0.134816 91.602 -0.0916476 92.0391 0.0352396 92.4507C0.162127 92.8622 0.595488 93.0926 1.00348 92.9646C8.74751 90.5347 22.9628 83.9165 32.126 75.2091C36.8599 70.7116 40.2331 65.6489 40.809 60.3264C51.5105 54.5588 60.2989 44.0949 67.8126 35.289C68.0917 34.9641 68.0547 34.4698 67.7306 34.1882C67.4066 33.9086 66.9185 33.9441 66.6393 34.2709C59.4321 42.7165 51.0674 52.763 40.8949 58.5069ZM39.3391 59.3438C39.3977 58.0599 39.2727 56.7564 38.935 55.441C38.035 51.9182 33.8985 49.8349 29.6215 49.3032C26.9998 48.9783 24.3039 49.2462 22.1898 50.1992C20.8604 50.7978 19.7652 51.6662 19.1054 52.8477C18.2387 54.3974 18.0513 55.7226 18.4065 56.847C18.7618 57.9792 19.6443 58.8889 20.7941 59.6195C24.5636 62.0198 31.1597 62.5299 34.1679 61.5276C35.9424 60.9368 37.6642 60.2004 39.3391 59.3438Z" fill="#9E69A7" fill-opacity="0.2"/>
<path fill-rule="evenodd" clip-rule="evenodd" d="M40.8949 58.5069C40.8793 57.3648 40.7309 56.2129 40.4342 55.0531C39.3937 50.9829 34.7516 48.3699 29.8109 47.7555C24.872 47.1411 19.736 48.5392 17.7566 52.0797C16.6243 54.1039 16.4682 55.8486 16.9308 57.3195C17.3915 58.7826 18.4846 59.9956 19.9682 60.9407C24.1047 63.5735 31.3491 64.111 34.654 63.0103C36.1826 62.5003 37.6759 61.886 39.1302 61.183C38.2986 65.7848 35.2006 70.1445 31.066 74.0729C22.0804 82.611 8.13652 89.0914 0.542808 91.474C0.134816 91.602 -0.0916476 92.0391 0.0352396 92.4507C0.162127 92.8622 0.595488 93.0926 1.00348 92.9646C8.74751 90.5347 22.9628 83.9165 32.126 75.2091C36.8599 70.7116 40.2331 65.6489 40.809 60.3264C51.5105 54.5588 60.2989 44.0949 67.8126 35.289C68.0917 34.9641 68.0547 34.4698 67.7306 34.1882C67.4066 33.9086 66.9185 33.9441 66.6393 34.2709C59.4321 42.7165 51.0674 52.763 40.8949 58.5069ZM39.3391 59.3438C39.3977 58.0599 39.2727 56.7564 38.935 55.441C38.035 51.9182 33.8985 49.8349 29.6215 49.3032C26.9998 48.9783 24.3039 49.2462 22.1898 50.1992C20.8604 50.7978 19.7652 51.6662 19.1054 52.8477C18.2387 54.3974 18.0513 55.7226 18.4065 56.847C18.7618 57.9792 19.6443 58.8889 20.7941 59.6195C24.5636 62.0198 31.1597 62.5299 34.1679 61.5276C35.9424 60.9368 37.6642 60.2004 39.3391 59.3438Z" fill="#9E69A7" fill-opacity="0.2"/>
</svg>
