<svg width="108" height="61" viewBox="0 0 108 61" fill="none" xmlns="http://www.w3.org/2000/svg">
<path fill-rule="evenodd" clip-rule="evenodd" d="M50.6827 1.30985C48.4769 1.89817 46.554 3.05809 44.7591 4.8827C42.1127 7.57275 41.0033 10.0352 40.7918 13.6893C40.5957 17.0753 41.4329 19.8671 43.4952 22.7059C44.0202 23.4285 44.914 24.3805 45.4812 24.8214C46.0485 25.2624 46.5179 25.6794 46.5243 25.7484C46.5307 25.8171 46.1397 25.9933 45.655 26.1399C44.0766 26.617 40.7441 28.5006 38.9033 29.9561C37.1464 31.3451 35.8914 32.6042 34.5976 34.2755L33.9589 35.1005L32.5754 33.6889C31.089 32.1723 28.8702 30.5956 27.0413 29.7568C26.4174 29.4704 25.8711 29.2118 25.8276 29.1822C25.7841 29.1526 26.2039 28.6191 26.7606 27.9965C30.5759 23.7302 30.4587 17.4459 26.4881 13.3948C20.5293 7.31445 10.4149 10.6916 8.998 19.2346C8.49108 22.2919 9.54037 25.7247 11.6995 28.071C12.2674 28.6885 12.7109 29.2032 12.6849 29.2148C12.659 29.2267 12.1245 29.4663 11.4974 29.7477C7.28359 31.6377 3.65013 35.4646 1.74394 40.0199C0.85615 42.1419 0.755595 44.3323 1.48187 45.7315C2.03772 46.8021 3.05716 47.8406 4.13715 48.4361C4.95672 48.8882 5.11056 48.8941 17.2508 48.9542L29.5351 49.0151V51.1949C29.5351 52.4591 29.6576 53.79 29.827 54.3641C30.5303 56.7485 32.4576 58.7349 34.8672 59.5589C36.134 59.992 36.4686 59.9998 53.9281 59.9998C73.7434 59.9998 72.9887 60.0516 75.1477 58.541C76.4831 57.6065 77.7256 55.9053 78.1583 54.4187C78.342 53.787 78.4649 52.4938 78.4649 51.1901V49.0151L90.7492 48.9542C102.889 48.8941 103.043 48.8882 103.863 48.4361C104.943 47.8406 105.962 46.8021 106.518 45.7315C107.244 44.3323 107.144 42.1419 106.256 40.0199C104.356 35.4788 100.548 31.4648 96.5026 29.7375C95.8755 29.4699 95.341 29.2379 95.315 29.2222C95.2891 29.2063 95.7355 28.6851 96.3071 28.064C98.437 25.7492 99.4992 22.2481 98.9958 19.2026C97.5882 10.688 87.4614 7.32397 81.5119 13.3948C77.5668 17.4199 77.421 23.7355 81.1764 27.928C81.7677 28.5882 82.216 29.1526 82.1724 29.1822C82.1289 29.2118 81.5826 29.4704 80.9587 29.7568C79.1298 30.5956 76.911 32.1723 75.4246 33.6889L74.0411 35.1005L73.4024 34.2755C72.1086 32.6042 70.8536 31.3451 69.0967 29.9561C67.2559 28.5006 63.9234 26.617 62.345 26.1399C61.8605 25.9933 61.4693 25.8171 61.4757 25.7484C61.4821 25.6794 61.9515 25.2624 62.5188 24.8214C63.086 24.3805 63.9798 23.4285 64.5048 22.7059C66.5671 19.8671 67.4043 17.0753 67.2082 13.6893C66.9969 10.04 65.8918 7.58375 63.2409 4.87148C61.421 3.00943 59.56 1.90472 57.2219 1.29821C55.6694 0.895636 52.2124 0.901773 50.6827 1.30985ZM57.5918 4.98403C60.1799 6.00919 62.6716 8.64974 63.4462 11.1877C64.5987 14.9634 63.6831 18.8515 60.9968 21.5889C57.0579 25.6028 50.9537 25.6145 47.0294 21.6156C44.8806 19.426 43.9105 16.8261 44.1046 13.7764C44.1668 12.798 44.405 11.5642 44.6691 10.852C45.6687 8.15683 48.2136 5.70012 50.946 4.79236C52.7199 4.20299 55.8483 4.29332 57.5918 4.98403ZM22.455 14.517C23.8862 15.2953 24.9255 16.3924 25.6466 17.8855C26.0326 18.685 26.1139 19.2037 26.1131 20.8633C26.1123 22.6507 26.0484 22.9968 25.5359 23.9908C24.7936 25.4308 23.5795 26.6233 22.1044 27.3612C20.4627 28.1825 18.1516 28.1928 16.4484 27.3868C14.8198 26.6159 13.687 25.4928 12.907 23.8766C11.6833 21.3403 12.0804 18.2981 13.9053 16.227C15.5901 14.315 17.1415 13.6362 19.5884 13.7402C20.8875 13.7957 21.3675 13.9258 22.455 14.517ZM91.8023 14.384C93.2998 15.1316 94.8965 16.9067 95.3924 18.3751C96.6057 21.9678 94.9895 25.7596 91.5516 27.3868C89.8484 28.1928 87.5373 28.1825 85.8956 27.3612C81.7747 25.2997 80.4849 20.1453 83.1844 16.5265C83.9637 15.4819 85.6529 14.2672 86.8618 13.8822C88.0537 13.5025 90.5427 13.7553 91.8023 14.384ZM59.5357 28.7722C63.5005 29.893 66.5756 31.786 69.4652 34.8843C71.7315 37.3148 73.0963 39.6133 74.2031 42.8643C75.0291 45.2908 75.0313 45.3069 75.1099 49.0727C75.1758 52.2321 75.1319 52.9996 74.8408 53.7773C74.4336 54.8655 73.1227 56.0995 72.0512 56.403C71.0591 56.6844 36.9523 56.6876 35.9623 56.4066C34.948 56.1187 33.6989 55.0058 33.2448 53.9857C32.6554 52.6614 32.6844 47.0069 33.2935 44.5498C35.1647 36.9998 40.9467 30.8886 48.1183 28.881C50.6995 28.1585 51.4546 28.0743 54.622 28.1558C57.0426 28.218 57.9998 28.3381 59.5357 28.7722ZM22.4427 31.7697C25.7297 32.4464 29.7648 35.0138 31.4568 37.505L32.0166 38.3294L31.2775 40.0738C30.8709 41.0332 30.3358 42.6712 30.0884 43.7137L29.6387 45.6092L17.8209 45.6111C6.6222 45.6128 5.96974 45.5921 5.36454 45.2157C4.56114 44.7156 4.14979 43.7425 4.32955 42.7658C4.53605 41.6418 6.18225 38.4574 7.21579 37.1824C8.86593 35.1462 11.4972 33.2245 13.7879 32.3819C16.3252 31.4488 19.7176 31.2087 22.4427 31.7697ZM92.8744 31.9626C95.7834 32.7718 98.7482 34.7178 100.711 37.106C101.801 38.4326 103.456 41.5974 103.67 42.7658C103.85 43.7425 103.439 44.7156 102.635 45.2157C102.03 45.5921 101.375 45.613 90.1764 45.6136L78.3557 45.6145L77.9145 43.73C77.6719 42.6934 77.138 41.0543 76.7283 40.0873L75.9834 38.3294L76.5432 37.505C78.183 35.0908 82.2106 32.4868 85.4105 31.772C87.2184 31.3682 91.093 31.4672 92.8744 31.9626Z" fill="#FFFFFF" stroke="white" stroke-width="0.7"/>
<defs>
<linearGradient id="paint0_linear_2_129" x1="15.409" y1="6.9" x2="31.9835" y2="73.5066" gradientUnits="userSpaceOnUse">
<stop stop-color="#479CBB"/>
<stop offset="1" stop-color="#4E81BA"/>
</linearGradient>
</defs>
</svg>
