<svg width="57" height="80" viewBox="0 0 57 80" fill="none" xmlns="http://www.w3.org/2000/svg">
<path fill-rule="evenodd" clip-rule="evenodd" d="M24.9232 0.230896C23.2718 0.506112 21.7228 1.04514 20.058 1.92392C16.1087 4.00906 13.3923 7.44309 12.0976 11.9878C11.7754 13.1184 11.7514 13.5883 11.6922 19.9157C11.63 26.5649 11.6333 26.6524 11.9802 27.5725C12.4461 28.8081 13.7723 30.1499 14.9317 30.5586C15.6775 30.8213 15.768 30.9055 15.9157 31.474C16.6595 34.3343 18.5858 37.1022 21.0443 38.8434C21.6517 39.2735 22.0435 39.6639 22.0435 39.8387C22.0435 40.1676 22.3202 40.1018 16.4749 41.1631C12.4979 41.8853 11.5614 42.1638 10.1527 43.0426C9.42425 43.497 7.39816 45.5117 7.39816 45.7814C7.39816 45.8461 6.60794 45.5898 5.64229 45.2118C4.67649 44.8339 3.86155 44.5246 3.83131 44.5246C3.80092 44.5246 3.7762 46.3767 3.7762 48.6405V52.7564L2.83087 53.0172C1.71987 53.3239 0.801781 54.069 0.320848 55.0549C0.0229029 55.6659 -0.00292248 56.0016 0.000227053 59.2256C0.00337658 62.4163 0.0325092 62.795 0.324943 63.435C0.87737 64.6445 1.8068 65.3896 3.01779 65.5944L3.69746 65.7092L3.7762 68.1001L3.85494 70.4907L16.1775 75.2454L28.5 80L40.8225 75.2454L53.1451 70.4907L53.2238 68.1001L53.3025 65.7092L53.9822 65.5944C55.1932 65.3896 56.1226 64.6445 56.6751 63.435C56.9675 62.795 56.9966 62.4163 56.9998 59.2256C57.0029 56.0016 56.9771 55.6659 56.6791 55.0549C56.1982 54.069 55.2801 53.3239 54.1691 53.0172L53.2238 52.7564V48.6238C53.2238 44.7514 53.2065 44.4979 52.9482 44.5982C52.7967 44.6571 52.0145 44.9563 51.21 45.2631L49.7475 45.8207L48.6494 44.6381C46.6934 42.5314 45.6849 42.1 40.5251 41.1631C34.6798 40.1018 34.9565 40.1676 34.9565 39.8387C34.9565 39.6642 35.3452 39.2757 35.9447 38.8512C38.4579 37.0714 40.3203 34.3977 41.0836 31.474C41.232 30.9059 41.3228 30.8213 42.0683 30.5586C43.2149 30.1543 44.5543 28.807 45.0094 27.5998C45.341 26.7204 45.35 26.5012 45.3481 19.3179C45.3467 13.3456 45.3024 11.7758 45.1161 11.0811C44.4957 8.76697 42.8883 6.80373 40.8062 5.81649C40.144 5.50251 39.2123 4.89472 38.736 4.46572C34.7205 0.849937 29.9631 -0.608662 24.9232 0.230896ZM31.4133 3.10371C33.2978 3.69712 35.151 4.77235 36.8154 6.23814C37.6562 6.97862 38.5868 7.6683 38.8835 7.77098C40.2646 8.24874 41.5452 9.33632 42.1793 10.5699C42.7055 11.5934 42.8304 12.8543 42.8304 17.1422C42.8304 21.0131 42.813 21.2649 42.5548 21.1609C42.4033 21.1 42.0842 20.9799 41.8461 20.8945C41.466 20.7579 41.4131 20.6575 41.4131 20.073V19.4073L38.5391 19.3191C35.5869 19.2286 34.554 19.0578 32.9881 18.4013C31.1875 17.6464 29.5148 16.3078 28.0765 14.4709L27.3666 13.5641L25.9256 14.9416C24.0519 16.7325 23.2899 17.3346 22.0435 18.0088C20.6925 18.7396 19.0618 19.17 17.1482 19.3008L15.5869 19.4076V20.0732C15.5869 20.6575 15.534 20.7579 15.1539 20.8945C14.9158 20.9799 14.5969 21.1 14.4452 21.1609C14.1889 21.2639 14.1696 21.077 14.1701 18.481C14.1703 16.9461 14.2485 15.0573 14.3438 14.2836C15.0312 8.70665 19.2268 4.1169 24.7836 2.8635C26.2848 2.52483 30.0025 2.65955 31.4133 3.10371ZM28.2824 18.4841C31.0023 20.7463 34.0517 21.8634 37.5069 21.8634H38.9201L38.8572 26.044C38.7999 29.8692 38.764 30.3176 38.4363 31.3186C37.8695 33.0501 37.0725 34.3286 35.7452 35.6353C34.4202 36.9398 32.7125 37.906 30.9472 38.3498C29.7422 38.6529 27.2578 38.6529 26.0528 38.3498C22.5529 37.4699 19.7008 34.7922 18.5637 31.3186C18.236 30.3179 18.2001 29.8689 18.1428 26.0536L18.0801 21.8825L18.6839 21.7817C21.6268 21.2899 24.1719 20.0854 26.221 18.2147C26.6515 17.8216 27.0219 17.4972 27.044 17.4937C27.066 17.4903 27.6233 17.936 28.2824 18.4841ZM15.5869 25.6924C15.5869 27.419 15.546 27.8022 15.3614 27.8022C15.0666 27.8022 14.4966 26.9988 14.3065 26.3155C14.1038 25.5869 14.3863 24.5937 14.9577 24.0267C15.2038 23.7824 15.4461 23.5825 15.4961 23.5825C15.546 23.5825 15.5869 24.532 15.5869 25.6924ZM42.4275 24.526C42.8841 25.2971 42.8351 26.3716 42.3072 27.163C41.546 28.3045 41.4131 28.0831 41.4131 25.6733V23.5444L41.7674 23.7768C41.9623 23.9046 42.2593 24.2418 42.4275 24.526ZM27.004 41.1012C28.2931 41.2709 30.1505 41.1865 31.2324 40.9088C31.5659 40.8233 31.8695 40.7838 31.9073 40.8211C31.945 40.8585 31.1936 41.4683 30.2379 42.1761L28.5 43.4633L26.7678 42.1803C25.815 41.4747 25.0355 40.8613 25.0355 40.8174C25.0355 40.7733 25.1949 40.7819 25.3898 40.8363C25.5848 40.8907 26.3111 41.0099 27.004 41.1012ZM24.7426 43.9159C25.6832 44.6124 26.4528 45.2295 26.4528 45.287C26.4528 45.4401 23.9537 47.8807 23.8811 47.7983C23.7118 47.6059 22.2216 42.8989 22.2934 42.7835C22.506 42.442 23.1626 42.7456 24.7426 43.9159ZM34.7066 42.7835C34.7784 42.8989 33.2882 47.6059 33.1189 47.7983C33.0241 47.9058 30.5393 45.4078 30.5902 45.2562C30.6148 45.1829 31.3771 44.5681 32.284 43.8899C33.803 42.7542 34.4923 42.4393 34.7066 42.7835ZM20.9788 47.3673C21.7337 49.6184 22.3186 51.4927 22.2786 51.5325C22.1972 51.6132 10.2386 47.0442 10.006 46.8436C9.76014 46.6313 11.3026 45.3048 12.3732 44.8075C13.0586 44.4891 14.2359 44.1844 16.1698 43.8245C17.7113 43.5377 19.1152 43.2965 19.2895 43.2886C19.5665 43.2761 19.7788 43.7887 20.9788 47.3673ZM40.6876 43.8121C42.7996 44.1966 43.9275 44.4827 44.6454 44.8161C45.6744 45.294 47.2255 46.6479 46.9819 46.8556C46.7542 47.0495 34.7994 51.6099 34.7214 51.5325C34.591 51.403 37.3888 43.2743 37.5637 43.2743C37.6571 43.2743 39.0629 43.5163 40.6876 43.8121ZM31.0927 49.5201C32.4734 50.8922 33.5709 52.0414 33.5317 52.0736C33.4926 52.1059 32.3445 52.5598 30.9803 53.0824L28.5 54.0325L26.0197 53.0824C24.6557 52.5598 23.5074 52.1059 23.4683 52.0736C23.3921 52.0109 28.3613 47.0252 28.5 47.0252C28.5454 47.0252 29.7121 48.1479 31.0927 49.5201ZM17.3585 52.4962L27.2402 56.3022V66.5274C27.2402 74.6449 27.1996 76.7365 27.0433 76.6744C26.9352 76.6314 22.5592 74.9433 17.3192 72.9228C12.0791 70.9024 7.49075 69.1289 7.12257 68.982L6.4533 68.7147V66.9492V65.1838L7.12793 64.7914C8.06444 64.2467 9.23717 62.9577 9.69086 61.9742C11.0437 59.0414 9.90975 55.4304 7.12257 53.7957L6.4533 53.4031V50.8372V48.2712L6.9651 48.4808C7.24651 48.5961 11.9237 50.4031 17.3585 52.4962ZM50.5467 50.8393V53.4031L49.8774 53.7957C47.0903 55.4304 45.9563 59.0414 47.3091 61.9742C47.7628 62.9577 48.9356 64.2467 49.8721 64.7914L50.5467 65.1838V66.9495C50.5467 68.2165 50.4911 68.7372 50.3499 68.7929C50.2417 68.8357 45.6531 70.609 40.1533 72.7339C34.6534 74.8587 30.065 76.6321 29.9567 76.6749C29.8004 76.7365 29.7598 74.6448 29.7598 66.5275V56.3026L40.1139 52.2994C45.8087 50.0975 50.4858 48.2915 50.5073 48.2857C50.5289 48.2801 50.5467 49.4291 50.5467 50.8393ZM5.0664 55.6483C5.95803 55.9133 6.97628 56.8701 7.39501 57.8363C8.00082 59.2337 7.62854 61.0043 6.50715 62.0583C5.56623 62.9425 3.7647 63.4037 3.13259 62.9221C2.59071 62.5092 2.51639 62.0716 2.51639 59.296C2.51639 55.8424 2.63953 55.5064 3.91541 55.4768C4.20847 55.4701 4.72641 55.5472 5.0664 55.6483ZM53.7679 55.5615C54.3594 55.7869 54.4836 56.4349 54.4836 59.296C54.4836 62.0716 54.4093 62.5092 53.8674 62.9221C53.4874 63.2116 52.4404 63.1527 51.649 62.7972C50.2582 62.1724 49.4685 61.057 49.328 59.5188C49.1425 57.4876 50.8998 55.5183 52.9353 55.4764C53.2531 55.4698 53.6277 55.5083 53.7679 55.5615Z" fill="#FFFFFF"/>
<defs>
<linearGradient id="paint0_linear_2_20" x1="6.5" y1="8" x2="52.5" y2="69.5" gradientUnits="userSpaceOnUse">
<stop stop-color="#479CBB"/>
<stop offset="1" stop-color="#4E81BA"/>
</linearGradient>
</defs>
</svg>
