<svg width="66" height="80" viewBox="0 0 66 80" fill="none" xmlns="http://www.w3.org/2000/svg">
<path fill-rule="evenodd" clip-rule="evenodd" d="M27.8505 5.14669C18.5527 8.50396 13.4185 10.4337 13.0647 10.7042C11.4088 11.9702 11.1853 13.6947 12.302 16.5905C12.3764 16.7832 12.2216 16.9569 11.7053 17.2601C10.2813 18.0965 8.99649 19.8246 8.56566 21.4831C7.7157 24.7547 9.18554 28.1037 12.1452 29.6389C13.3923 30.2856 13.9454 30.4034 17.6006 30.7994C20.4623 31.1095 20.7674 31.1722 21.3442 31.5688C22.2639 32.2012 24.1562 33.1273 25.3868 33.5474C26.8557 34.0488 28.4211 34.3231 31.1195 34.5525L33.4033 34.7466L33.7878 35.7179L34.1724 36.6894L33.6483 37.1085C32.8545 37.7432 32.5043 38.6065 31.9626 41.2637L31.468 43.6888L29.4498 44.5184C28.3399 44.9746 21.2901 47.8446 13.7838 50.8961C6.27752 53.9474 0.0864825 56.4936 0.0258044 56.5544C-0.110994 56.6915 0.671582 58.9313 0.856423 58.9313C0.930516 58.9313 4.69396 57.4465 9.21986 55.6317C13.7458 53.817 17.7772 52.2019 18.1785 52.0428L18.9085 51.7532L21.1004 58.3416C22.3059 61.9651 23.2669 64.9555 23.2357 64.9866C23.2047 65.0177 17.9942 67.1928 11.6568 69.8198C5.31946 72.447 0.0802431 74.6471 0.0139495 74.709C-0.052188 74.7711 0.123295 75.3224 0.403912 75.9343L0.914294 77.0471L2.24016 76.4964C2.96939 76.1935 6.61944 74.6771 10.3514 73.1267C14.0833 71.5764 21.8461 68.352 27.6019 65.9616L38.0671 61.6153L41.2401 61.9955C42.9851 62.2046 44.4492 62.4119 44.4935 62.4563C44.5378 62.5007 45.0844 64.1 45.7081 66.0104L46.8421 69.4838L44.9908 71.3599C43.9727 72.3917 43.0151 73.4821 42.8628 73.783C42.361 74.7754 42.4928 75.9512 43.3443 78.0822C43.7566 79.114 44.1071 79.9768 44.1233 79.9996C44.1678 80.0622 65.317 71.7401 65.461 71.6033C65.6179 71.4541 64.4347 68.266 63.9484 67.5275C63.7479 67.2233 63.2134 66.7747 62.7503 66.5219C61.9419 66.0811 61.8228 66.0628 59.2063 65.977L56.4987 65.8882L55.4243 63.3087C54.8333 61.8899 54.3474 60.6579 54.3444 60.5708C54.3414 60.4839 55.6503 59.7566 57.2529 58.9549C58.8555 58.1532 60.3883 57.3278 60.6594 57.1207C61.462 56.5072 62.0376 55.279 62.0433 54.1684C62.0476 53.3158 61.6988 52.286 58.4136 43.4543C54.5119 32.965 54.1911 32.1632 53.6671 31.5918C53.0859 30.9579 51.8745 30.4818 50.8385 30.4801C50.021 30.4787 49.5641 30.6291 46.9708 31.7535C45.2304 32.5079 43.9737 32.9705 43.8922 32.8869C43.8165 32.809 43.6108 32.3777 43.435 31.9284L43.1157 31.1112L44.9736 28.9227C45.9955 27.7191 47.0374 26.4334 47.2889 26.0659C48.349 24.5169 49.3334 22.1197 49.6673 20.2734C49.83 19.3743 49.9517 19.1858 51.9026 16.8103C54.2751 13.9212 54.5267 13.5395 54.8896 12.2799C55.7777 9.19574 54.151 5.68745 51.1447 4.20431C50.1096 3.69373 49.9739 3.66731 48.3827 3.66731H46.7093L46.3797 2.76135C46.1984 2.26312 45.8273 1.6012 45.5551 1.29041C44.9179 0.563141 43.7044 -0.00450671 42.7962 2.69677e-05C42.2729 0.00252831 38.4704 1.31198 27.8505 5.14669ZM43.7145 3.21144C43.9878 3.55944 46.6759 11.3843 47.1529 13.2201C47.6626 15.1818 47.6227 18.3122 47.0613 20.3944C46.7408 21.5836 45.7897 23.6632 45.1185 24.6431C44.7036 25.2487 41.8488 28.6663 40.4254 30.2614C40.1353 30.5866 40.1392 30.6135 40.6998 32.1133C41.0127 32.9505 41.2088 33.687 41.1356 33.7503C40.952 33.9087 36.6888 35.6659 36.6309 35.6069C36.6053 35.5808 36.3052 34.8559 35.9641 33.9961L35.3439 32.4327L32.4797 32.1695C28.9367 31.8438 27.7647 31.66 26.5278 31.2355C23.0744 30.051 20.1935 27.6839 18.5665 24.6942C17.8931 23.4571 14.251 14.2283 14.251 13.7593C14.251 13.1041 14.9135 12.7375 18.3066 11.515C20.1511 10.8504 26.293 8.62668 31.9553 6.5734C37.7372 4.4768 42.5017 2.83295 42.8238 2.82388C43.2664 2.81122 43.4701 2.89986 43.7145 3.21144ZM49.8419 6.40784C50.1568 6.49554 50.767 6.88497 51.198 7.27346C52.4735 8.42282 52.9304 10.1341 52.3879 11.7299C52.1221 12.5117 50.3061 14.9413 50.1373 14.7411C50.077 14.6693 49.9453 14.1024 49.8447 13.4812C49.7441 12.8599 49.2131 10.9781 48.6645 9.29923L47.6672 6.24681L48.4683 6.24775C48.9091 6.24822 49.5271 6.32029 49.8419 6.40784ZM39.1306 7.1931C38.6158 7.52813 38.1962 7.85674 38.1981 7.92334C38.2 7.99009 38.455 8.53711 38.7651 9.13899C40.4822 12.473 41.1704 16.3216 40.5335 19.0287C40.2597 20.1924 39.5485 21.6593 38.8977 22.4022C38.6397 22.6967 38.4286 23.0011 38.4286 23.0787C38.4286 23.1562 38.815 23.6022 39.2873 24.0697L40.1462 24.9196L40.6522 24.319C43.8451 20.5295 44.2409 15.5124 41.8171 9.55406C41.145 7.90161 40.4026 6.54807 40.1814 6.57183C40.1183 6.57855 39.6453 6.85808 39.1306 7.1931ZM14.5634 22.1244C15.7946 25.0913 16.0823 25.6666 17.0845 27.1668L17.8485 28.3105L17.1805 28.2277C16.8134 28.182 16.0916 28.1031 15.5769 28.0523C13.4893 27.8464 12.1014 26.9743 11.4515 25.4606C10.6228 23.5297 10.9226 21.7562 12.3137 20.3622C12.781 19.8938 13.2457 19.538 13.3464 19.5718C13.447 19.6054 13.9947 20.7541 14.5634 22.1244ZM51.593 32.9618C51.8338 33.2286 52.9881 35.9538 52.8959 36.0384C52.8747 36.0578 51.5236 36.511 49.8935 37.0454C48.2635 37.5797 46.8634 38.0794 46.7819 38.1556C46.5893 38.3367 47.2716 40.4839 47.5218 40.4839C47.623 40.4839 49.0308 40.0557 50.6502 39.5323C52.2695 39.0089 53.652 38.6395 53.7225 38.7116C53.948 38.9418 55.251 42.5905 55.144 42.6921C55.0874 42.7459 53.725 43.2266 52.1163 43.7604C50.5078 44.2942 49.1925 44.7426 49.1936 44.757C49.2056 44.9055 49.936 47.0664 49.9938 47.1245C50.0364 47.1672 51.4303 46.7467 53.0912 46.1901C54.7521 45.6336 56.1378 45.2049 56.1702 45.2374C56.2811 45.3486 57.6148 48.956 57.6148 49.1448C57.6148 49.2514 56.3773 49.7334 54.7681 50.2538C53.2023 50.7602 51.8915 51.1967 51.8552 51.2237C51.7246 51.3215 52.5261 53.616 52.6908 53.616C52.7835 53.616 54.0752 53.1939 55.5612 52.678C57.0471 52.1621 58.3577 51.74 58.4736 51.74C58.7235 51.74 59.3306 53.2809 59.3306 53.9153C59.3306 54.1595 59.2247 54.4475 59.0951 54.5552C58.9656 54.6631 56.4661 55.938 53.5408 57.3885C49.5076 59.3883 48.0849 60.0236 47.6539 60.0174C47.3415 60.0128 45.2315 59.7841 42.9651 59.5093L38.8443 59.0095L36.4467 51.8181L34.0491 44.6268L34.5167 42.1453C34.7739 40.7805 35.0753 39.5265 35.1865 39.3586C35.4744 38.9242 50.0256 32.6793 50.7663 32.6724C51.1225 32.6691 51.424 32.7746 51.593 32.9618ZM34.0004 52.8501C35.165 56.3237 36.129 59.2566 36.1424 59.3675C36.17 59.5956 25.9335 63.9765 25.7744 63.8047C25.6366 63.656 21.3818 50.7938 21.4491 50.7294C21.5425 50.6395 24.2866 49.5513 24.3179 49.5916C24.334 49.6124 25.0684 51.8103 25.9499 54.4758C26.8313 57.1413 27.5662 59.3397 27.583 59.3612C27.6304 59.4217 29.7568 58.7479 29.8872 58.6312C29.9509 58.5741 29.2666 56.3155 28.3664 53.6122C27.4662 50.9089 26.7298 48.6502 26.7298 48.5931C26.7298 48.4877 31.7642 46.4205 31.8411 46.4943C31.864 46.5164 32.8357 49.3765 34.0004 52.8501ZM52.6967 63.7814C53.2399 65.0261 53.6384 66.0883 53.5826 66.1417C53.4378 66.2806 49.1467 67.6932 49.0783 67.6246C48.9968 67.5428 47.4758 63.1611 47.4758 63.008C47.4758 62.9378 47.7742 62.8443 48.1387 62.8003C48.5032 62.7562 49.3983 62.4318 50.1275 62.0794C50.8567 61.727 51.5109 61.4566 51.5814 61.4785C51.6519 61.5003 52.1537 62.5367 52.6967 63.7814ZM61.3997 68.7794C61.6172 68.9509 61.8697 69.3053 61.9608 69.5672C62.1085 69.9922 62.0894 70.0577 61.7814 70.178C61.5916 70.2519 57.9074 71.7265 53.5941 73.4547C49.2808 75.183 45.6947 76.597 45.6248 76.597C45.4214 76.597 45.1361 75.844 45.1336 75.2999C45.1316 74.8586 45.4046 74.5348 47.4344 72.571L49.7375 70.3429L52.5453 69.4166L55.353 68.4905L58.1787 68.4791C60.7752 68.4686 61.0365 68.493 61.3997 68.7794Z" fill="url(#paint0_linear_2_117)"/>
<defs>
<linearGradient id="paint0_linear_2_117" x1="8.9003" y1="8" x2="49.2495" y2="81.8658" gradientUnits="userSpaceOnUse">
<stop stop-color="#479CBB"/>
<stop offset="1" stop-color="#4E81BA"/>
</linearGradient>
</defs>
</svg>
