<svg width="77" height="77" viewBox="0 0 77 77" fill="none" xmlns="http://www.w3.org/2000/svg">
<path fill-rule="evenodd" clip-rule="evenodd" d="M48.1882 1.19976C44.3066 1.73134 41.0025 3.1372 37.8566 5.59581C30.8613 11.0628 28.0374 20.401 30.8153 28.8798C31.9868 32.4555 34.2729 35.9093 37.0506 38.2997C39.8347 40.6958 43.2232 42.3913 46.6355 43.0961C49.918 43.7739 56.2318 43.7729 59.1678 43.0939L60.109 42.8763L63.0661 45.8104C65.9023 48.6247 66.0465 48.7444 66.5946 48.7414C67.1999 48.7379 67.683 48.4432 67.9549 47.9118C68.0645 47.6973 68.1186 46.159 68.1186 43.2495V38.9074L69.5538 37.489C71.6292 35.4378 73.2077 33.1835 74.2405 30.7959C78.0871 21.9025 75.4732 11.5155 67.8987 5.59581C64.6992 3.09529 61.4427 1.72489 57.4318 1.19097C55.4891 0.932361 50.1034 0.937489 48.1882 1.19976ZM58.2473 4.25354C63.9351 5.45544 68.6058 9.03552 71.2063 14.1862C71.7896 15.3412 72.5704 17.734 72.8255 19.1475C73.0691 20.4969 73.0683 24.1469 72.8245 25.4479C71.9982 29.8531 69.856 33.469 66.2134 36.6063L65.2609 37.4266L65.216 40.6165L65.1711 43.8063L63.137 41.791L61.1028 39.7759L60.4707 39.8471C60.1231 39.8863 59.1792 40.0704 58.3732 40.2562C57.048 40.5617 56.5431 40.5945 53.0975 40.5995C47.9644 40.6069 46.1314 40.2649 42.966 38.7099C37.7672 36.156 34.2136 31.5315 33 25.7409C32.6791 24.2098 32.6426 20.7475 32.9304 19.1475C33.9612 13.4179 37.6706 8.4597 42.901 5.81984C44.1655 5.18174 46.5536 4.41603 47.8951 4.21852C48.4996 4.12958 49.159 4.02878 49.3605 3.99449C50.281 3.83815 57.2418 4.04108 58.2473 4.25354ZM51.632 11.502C50.3763 11.8809 49.85 12.192 48.9605 13.0814C47.8806 14.1611 47.2599 15.5047 47.1855 16.9243C47.1323 17.9369 47.1525 18.0222 47.5396 18.4262C48.0758 18.9859 48.8561 19.0133 49.4732 18.4941C49.8201 18.2023 49.9321 17.9487 50.0632 17.1571C50.2608 15.9655 50.7436 15.1914 51.604 14.6873C52.9334 13.9084 54.5213 14.0974 55.5546 15.1576C57.3374 16.9867 56.6381 19.6691 54.1365 20.5976C52.1316 21.3419 51.8518 21.8779 51.8518 24.9745C51.8518 26.3208 51.9173 27.3362 52.0188 27.5585C52.1105 27.7598 52.414 28.0331 52.6933 28.1655C53.1378 28.3764 53.2679 28.3813 53.7356 28.2055C54.5887 27.8848 54.7823 27.3279 54.7825 25.1914C54.7828 23.8534 54.8294 23.3966 54.966 23.3964C55.4543 23.3961 56.982 22.4896 57.6588 21.7986C60.6959 18.6975 59.7806 13.6843 55.8448 11.8642C54.4775 11.2319 52.96 11.1015 51.632 11.502ZM9.1334 26.7132C8.5692 26.8319 7.48783 27.2284 6.73033 27.5942C5.5833 28.1482 5.13912 28.4715 4.07372 29.5276C2.98561 30.6064 2.69472 31.0038 2.12597 32.1878C0.974109 34.5857 1.00005 34.2209 1.00005 48.012C1.00005 61.8031 0.974109 61.4382 2.12597 63.8362C2.69472 65.0202 2.98561 65.4176 4.07372 66.4964C5.14 67.5534 5.58228 67.8752 6.73033 68.4289C8.86053 69.4564 9.5685 69.5505 15.1738 69.5505H19.9808L22.7637 72.3496C26.4438 76.0509 26.7592 76.2733 27.7138 75.8384C28.4531 75.5016 28.5509 75.0768 28.5509 72.2019V69.5505H36.1775C44.9093 69.5505 45.1667 69.5248 47.4554 68.4233C48.6274 67.8594 49.0474 67.5536 50.1104 66.4907C51.1726 65.4287 51.4799 65.0069 52.0443 63.8362C53.1252 61.5937 53.1885 61.0445 53.1395 54.3368L53.0975 48.5738L52.6011 48.1305C52.1822 47.7563 52.0221 47.7002 51.5753 47.7713C51.2426 47.824 50.8961 48.0215 50.6428 48.3022L50.2398 48.7493V54.4305C50.2398 60.6684 50.2048 60.9918 49.3459 62.693C48.7833 63.8072 47.4834 65.1338 46.4322 65.6664C44.6063 66.5915 45.2502 66.5355 35.4784 66.6177L26.5055 66.6933L26.0994 67.0993C25.7134 67.4851 25.6895 67.5895 25.6199 69.1956L25.5467 70.8857L23.6416 68.9572C22.5937 67.8966 21.6063 66.9367 21.4473 66.8243C21.2128 66.6586 20.1463 66.6201 15.7995 66.6201C11.5262 66.6201 10.2709 66.5758 9.60279 66.4019C6.89138 65.6958 4.85541 63.6602 4.1492 60.9493C3.82328 59.6982 3.82328 36.3258 4.1492 35.0747C4.85541 32.3638 6.89138 30.3282 9.60279 29.6221C10.2955 29.4417 11.8315 29.4039 18.4676 29.4039H26.4945L26.9698 28.9793C27.3631 28.6279 27.4452 28.4486 27.4452 27.9387C27.4452 27.4288 27.3631 27.2495 26.9698 26.8981L26.4945 26.4735L18.3269 26.4855C11.7312 26.495 9.96183 26.539 9.1334 26.7132ZM52.9193 31.2668C52.4141 31.3617 51.8518 32.1287 51.8518 32.7232C51.8518 33.8533 53.3638 34.5438 54.178 33.7855C55.3131 32.728 54.44 30.9809 52.9193 31.2668ZM9.86614 38.3336C8.93322 38.7154 8.68526 39.9381 9.39645 40.6493L9.79946 41.0523L21.0017 41.0915L32.204 41.131L32.6822 40.7037C33.0786 40.3496 33.1605 40.171 33.1605 39.6603C33.1605 39.1504 33.0784 38.9711 32.6851 38.6197L32.2099 38.1951L21.1845 38.2044C15.1206 38.2095 10.0273 38.2677 9.86614 38.3336ZM9.86614 46.5387C8.93322 46.9206 8.68526 48.1433 9.39645 48.8545L9.79946 49.2574L25.7653 49.296L41.7312 49.3345L42.2086 48.908C42.6041 48.5547 42.6861 48.3758 42.6861 47.8655C42.6861 47.3556 42.604 47.1762 42.2107 46.8249L41.7354 46.4003L25.9473 46.4095C17.2638 46.4146 10.0273 46.4728 9.86614 46.5387ZM9.86614 54.7439C8.93322 55.1257 8.68526 56.3484 9.39645 57.0596L9.79946 57.4626L22.8021 57.4983C32.9804 57.5263 35.8845 57.4942 36.1713 57.3506C36.3728 57.2498 36.6586 56.9204 36.8062 56.6189C37.0666 56.0873 37.0666 56.0539 36.8062 55.5223C36.6586 55.2208 36.3728 54.892 36.1713 54.7919C35.8873 54.6507 32.9203 54.6113 22.9821 54.6168C15.9295 54.6208 10.0273 54.6779 9.86614 54.7439ZM40.7875 54.7384C39.8536 55.1382 39.6067 56.3486 40.3146 57.0563C40.6165 57.3582 40.8576 57.456 41.3005 57.456C43.0047 57.456 43.2022 54.9656 41.5203 54.686C41.2785 54.6457 40.9487 54.6693 40.7875 54.7384Z" fill="url(#paint0_linear_2_121)" stroke="white" stroke-width="0.2"/>
<defs>
<linearGradient id="paint0_linear_2_121" x1="11.195" y1="8.5" x2="44.6964" y2="83.4348" gradientUnits="userSpaceOnUse">
<stop stop-color="#479CBB"/>
<stop offset="1" stop-color="#4E81BA"/>
</linearGradient>
</defs>
</svg>
