<svg width="75" height="75" viewBox="0 0 75 75" fill="none" xmlns="http://www.w3.org/2000/svg">
<path fill-rule="evenodd" clip-rule="evenodd" d="M36.8957 0.260539C36.6756 0.414555 35.9932 1.63662 35.1651 3.35947C34.4131 4.9238 33.7655 6.20382 33.7263 6.20382C33.6091 6.20382 28.323 6.96476 27.7677 7.06144C27.1136 7.17548 26.6538 7.63521 26.6496 8.17938C26.647 8.52817 27.0841 9.02709 29.0591 10.9297L31.4716 13.254L30.9102 16.4985C30.3033 20.0072 30.3153 20.3272 31.066 20.6126C31.5603 20.8005 31.4936 20.8275 34.7589 19.1102L37.5189 17.6587L40.26 19.111C43.494 20.8242 43.4377 20.8013 43.934 20.6126C44.6845 20.3273 44.6964 20.0074 44.087 16.5047L43.5234 13.2653L45.939 10.9354C47.9174 9.02725 48.3539 8.52832 48.3508 8.17938C48.346 7.63506 47.8863 7.17548 47.2323 7.06144C46.6689 6.96336 41.3901 6.20382 41.2709 6.20382C41.23 6.20382 40.579 4.92133 39.8241 3.35373C38.2196 0.0220764 37.8274 -0.392095 36.8957 0.260539ZM38.575 5.677C39.1255 6.84003 39.7213 7.88173 39.9048 8.00197C40.0877 8.12174 41.2991 8.37105 42.5969 8.5559L44.9565 8.89229L43.1651 10.688C41.6775 12.1795 41.3743 12.5622 41.3758 12.9463C41.3768 13.2007 41.5398 14.3647 41.7381 15.5328L42.0989 17.657L37.5112 15.2682L32.8996 17.6667L33.261 15.5378C33.4598 14.3669 33.6232 13.2007 33.6242 12.9463C33.6257 12.5622 33.3225 12.1795 31.8349 10.688L30.0435 8.89229L32.4031 8.5559C33.7009 8.37105 34.9123 8.12174 35.0952 8.00197C35.2787 7.88173 35.8745 6.84003 36.4251 5.677C36.9736 4.518 37.4574 3.56973 37.5 3.56973C37.5426 3.56973 38.0264 4.518 38.575 5.677ZM10.1107 9.80632C9.93161 9.99799 9.18611 11.3752 8.45408 12.8665L7.12299 15.5781L3.83895 16.0662C0.965702 16.493 0.520196 16.597 0.277376 16.8967C0.124897 17.0852 0 17.3835 0 17.5598C0 17.7662 0.858936 18.7453 2.41023 20.3075L4.82061 22.7347L4.25919 25.9615C3.70134 29.168 3.69964 29.1909 3.99483 29.5882C4.51596 30.2895 4.88972 30.1959 8.01415 28.5813L10.9246 27.0773L13.7284 28.5714C15.2706 29.3932 16.7176 30.0656 16.9438 30.0656C17.4122 30.0656 17.9757 29.5784 17.9743 29.1746C17.9738 29.0254 17.7277 27.5089 17.4274 25.8045L16.8815 22.7056L19.2879 20.3482C21.834 17.8541 21.9886 17.6031 21.4154 16.8951C21.1712 16.5936 20.7332 16.4912 17.8683 16.0658L14.5997 15.5805L13.1495 12.6606C12.3519 11.0546 11.5819 9.67694 11.4384 9.59916C10.9931 9.35775 10.4504 9.4425 10.1107 9.80632ZM63.5331 9.60489C63.4052 9.68066 62.6453 11.0618 61.8442 12.6741L60.3879 15.6055L57.1954 16.0547C54.4595 16.4397 53.9532 16.553 53.6544 16.8474C52.9697 17.522 53.1284 17.7909 55.7112 20.3357L58.1166 22.7056L57.5716 25.8045C57.272 27.5089 57.0262 29.0254 57.0257 29.1746C57.0243 29.5748 57.5862 30.0656 58.0458 30.0656C58.2663 30.0656 59.7133 29.4018 61.2612 28.5905C62.8089 27.7792 64.1451 27.1341 64.2304 27.1572C64.3156 27.1801 65.625 27.8484 67.1402 28.6422C70.1036 30.1945 70.4851 30.2879 71.0052 29.5882C71.3004 29.1909 71.2987 29.168 70.7408 25.9615L70.1794 22.7347L72.5898 20.3075C74.1411 18.7453 75 17.7662 75 17.5598C75 17.3835 74.8711 17.0801 74.7135 16.8855C74.4589 16.5711 74.0642 16.4788 71.1614 16.055L67.8959 15.5781L66.5061 12.7782C65.7417 11.2383 64.9991 9.86117 64.8559 9.718C64.5761 9.43817 63.9104 9.38115 63.5331 9.60489ZM12.0065 15.185C12.8303 16.8462 13.171 17.3837 13.4741 17.5002C13.6912 17.5837 14.6358 17.7619 15.5733 17.8962C16.5108 18.0306 17.522 18.1805 17.8202 18.2295L18.3626 18.3185L16.5418 20.0504C15.0088 21.5086 14.7214 21.8554 14.7229 22.244C14.7239 22.498 14.8873 23.6644 15.0863 24.8361C15.2853 26.0078 15.4123 26.9666 15.3688 26.9666C15.3251 26.9666 14.3616 26.4785 13.2276 25.882C12.0934 25.2855 11.0355 24.7974 10.8765 24.7974C10.7176 24.7974 9.65346 25.2855 8.51173 25.882C7.36999 26.4785 6.39607 26.9666 6.34742 26.9666C6.29861 26.9666 6.41622 26.0775 6.60868 24.9911C7.18357 21.7459 7.27376 22.0595 5.18724 20.0514L3.39545 18.3267L3.90589 18.2396C4.18667 18.1917 5.21823 18.0343 6.19835 17.8896C7.17846 17.7448 8.12634 17.5724 8.30486 17.5062C8.52474 17.4247 8.97149 16.6821 9.68957 15.2037C10.2727 14.0035 10.791 13.0215 10.8415 13.0215C10.892 13.0215 11.4163 13.995 12.0065 15.185ZM65.3112 15.2054C66.0155 16.6549 66.481 17.4326 66.6959 17.518C66.874 17.5888 67.8215 17.7597 68.8017 17.8978C69.7818 18.0358 70.8166 18.1894 71.1012 18.239L71.619 18.3295L69.8228 20.0266C67.7451 21.9901 67.8319 21.7206 68.3368 24.6424C68.5061 25.6225 68.6451 26.5517 68.6456 26.7074C68.6465 26.9417 68.2818 26.8011 66.5348 25.8939C65.373 25.2909 64.2953 24.7974 64.1396 24.7974C63.9838 24.7974 62.9235 25.2855 61.7833 25.882C60.6431 26.4785 59.6746 26.9666 59.631 26.9666C59.5875 26.9666 59.7147 26.008 59.9137 24.8361C60.4515 21.6682 60.5653 22.046 58.4715 20.0534L56.6616 18.3307L57.6567 18.1646C58.204 18.0732 59.2097 17.9212 59.8915 17.8267C61.8623 17.5535 61.787 17.6176 62.9935 15.185C63.5837 13.995 64.108 13.0215 64.1585 13.0215C64.209 13.0215 64.7278 14.0043 65.3112 15.2054ZM35.6038 26.9611C32.095 27.6027 29.0713 29.8068 27.5097 32.8613C26.5898 34.6602 26.2748 35.9586 26.2706 37.9678C26.2661 40.1538 26.4629 41 27.4562 43.066C28.107 44.4198 28.4213 44.8676 29.4178 45.8613C31.2099 47.6484 32.8508 48.5454 35.2252 49.0358C41.8379 50.4016 48.1963 45.5233 48.6079 38.7684C48.9417 33.2905 45.4963 28.599 40.0568 27.1251C39.2126 26.8963 36.5038 26.7965 35.6038 26.9611ZM39.4749 29.2137C41.7535 29.7509 44.0532 31.4412 45.2437 33.4536C46.944 36.3279 46.888 40.1408 45.1054 42.8832C43.4303 45.4599 40.9652 46.903 37.9649 47.0627C35.1442 47.2128 33.0735 46.4155 31.0626 44.4048C29.2142 42.5566 28.3621 40.5497 28.3621 38.0453C28.3621 33.9592 31.3299 30.1833 35.2977 29.2213C36.4749 28.936 38.2829 28.9326 39.4749 29.2137ZM26.2655 53.4701C24.8619 53.656 23.0557 54.2849 21.8061 55.0228C20.3828 55.863 18.5207 57.7204 17.7002 59.118C16.2271 61.6269 15.9177 63.6164 15.9902 70.1108L16.0382 74.4079L16.4041 74.704C16.76 74.9921 17.3255 75 37.5059 75H58.242L58.5631 74.5917C58.8721 74.1991 58.8843 74.0037 58.8843 69.4898C58.8843 64.7181 58.7303 62.648 58.3289 62.0257C57.9992 61.5147 57.3934 61.4149 56.8951 61.7896C56.5537 62.0462 56.4899 62.2036 56.5257 62.7007C56.5495 63.0312 56.6078 65.4455 56.6554 68.0661L56.7418 72.8307H48.9669V70.2176C48.9669 67.8085 48.9418 67.5725 48.6457 67.1961C48.2383 66.6781 47.5943 66.6569 47.1344 67.1464C46.8155 67.4859 46.7975 67.6472 46.7975 70.1678V72.8307H28.0475V70.1192C28.0475 67.6142 28.024 67.3841 27.7376 67.0977C27.2916 66.6518 26.5921 66.6966 26.1993 67.1961C25.9032 67.5725 25.8781 67.8085 25.8781 70.2176V72.8307H18.0999L18.1664 68.1436C18.2278 63.8127 18.2594 63.3741 18.5814 62.3719C19.5064 59.4933 21.8182 57.0473 24.5078 56.1021C26.1473 55.526 27.1173 55.4791 37.4372 55.478C46.8474 55.4769 47.5406 55.4586 47.7668 55.2056C48.2572 54.6571 48.1154 53.7734 47.4913 53.4889C47.0284 53.2782 27.843 53.261 26.2655 53.4701ZM52.2916 55.5473C51.5946 56.244 51.7788 56.6265 53.4474 57.9452C54.5323 58.8025 54.9294 58.8958 55.4459 58.4147C55.9858 57.9117 55.8843 57.3405 55.1265 56.617C53.5522 55.1139 52.9515 54.8872 52.2916 55.5473Z" fill="url(#paint0_linear_2_125)"/>
<path fill-rule="evenodd" clip-rule="evenodd" d="M48.5992 53.4705C50.0028 53.6564 51.809 54.2854 53.0586 55.0232C54.4819 55.8635 56.3441 57.7208 57.1646 59.1185C58.6376 61.6273 58.9471 63.6169 58.8745 70.1113L58.8265 74.4084L58.4606 74.7045C58.1047 74.9926 57.5393 75.0005 37.3588 75.0005H16.6227L16.3017 74.5922C15.9927 74.1995 15.9804 74.0042 15.9804 69.4903C15.9804 64.7185 16.1345 62.6484 16.5358 62.0262C16.8655 61.5152 17.4713 61.4154 17.9696 61.79C18.311 62.0466 18.3748 62.2041 18.3391 62.7011C18.3152 63.0316 18.2569 65.446 18.2094 68.0666L18.1229 72.8312H25.8978V70.218C25.8978 67.8089 25.9229 67.573 26.219 67.1966C26.6264 66.6786 27.2704 66.6574 27.7303 67.1469C28.0492 67.4863 28.0672 67.6476 28.0672 70.1683V72.8312H46.8172V70.1197C46.8172 67.6146 46.8408 67.3845 47.1271 67.0982C47.5731 66.6523 48.2726 66.697 48.6654 67.1966C48.9615 67.573 48.9866 67.8089 48.9866 70.218V72.8312H56.7648L56.6983 68.1441C56.6369 63.8132 56.6053 63.3745 56.2833 62.3723C55.3584 59.4937 53.0465 57.0478 50.3569 56.1026C48.7175 55.5265 47.7474 55.4795 37.4275 55.4785C28.0173 55.4774 27.3242 55.4591 27.0979 55.2061C26.6075 54.6576 26.7493 53.7739 27.3735 53.4894C27.8363 53.2787 47.0217 53.2615 48.5992 53.4705ZM22.5731 55.5477C23.2701 56.2445 23.0859 56.6269 21.4173 57.9457C20.3324 58.803 19.9353 58.8963 19.4188 58.4152C18.8789 57.9122 18.9804 57.3409 19.7382 56.6175C21.3126 55.1143 21.9132 54.8876 22.5731 55.5477Z" fill="url(#paint1_linear_2_125)"/>
<defs>
<linearGradient id="paint0_linear_2_125" x1="10.195" y1="7.50005" x2="43.6967" y2="82.4352" gradientUnits="userSpaceOnUse">
<stop stop-color="#479CBB"/>
<stop offset="1" stop-color="#4E81BA"/>
</linearGradient>
<linearGradient id="paint1_linear_2_125" x1="10.195" y1="7.50005" x2="43.6967" y2="82.4352" gradientUnits="userSpaceOnUse">
<stop stop-color="#479CBB"/>
<stop offset="1" stop-color="#4E81BA"/>
</linearGradient>
</defs>
</svg>
