<svg width="144" height="84" viewBox="0 0 144 84" fill="none" xmlns="http://www.w3.org/2000/svg">
<path fill-rule="evenodd" clip-rule="evenodd" d="M1.36185 24.6905C2.33833 25.6504 3.89026 25.6356 4.85818 24.6729C16.4612 13.5128 28.6783 7.83615 41.1349 7.69391C53.2643 7.55707 65.5182 12.8191 77.5408 23.2449C80.2131 25.5205 84.3439 30.2587 87.9776 35.8529C84.9287 40.2385 82.897 45.432 81.8938 50.4355C80.4142 57.8254 81.4916 64.6201 83.9302 67.9854C85.2814 69.8489 87.0238 70.9908 89.0611 71.4668C91.6688 72.0725 95.2121 71.5321 99.2789 68.0827C104.89 63.3012 106.254 56.4739 104.577 48.96C103.692 45.0101 101.905 40.8649 99.6783 36.8815C102.254 34.825 105.46 33.6354 109.36 34.0637C117.617 34.9144 123.808 41.6942 128.211 49.6712C132.03 56.5721 136.631 66.7667 135.415 74.8673C135.003 77.6201 133.799 79.986 136.071 82.2358C139.549 85.7167 142.738 82.1134 143.309 78.3325C144.531 70.2102 141.635 60.426 138.778 52.9332C133.534 39.1445 123.694 26.7428 110.407 25.0331C104.177 24.2602 98.8919 25.9166 94.6106 28.9942C90.5467 23.3546 86.1639 18.6886 83.2881 16.3468C69.0586 4.99213 54.7379 -0.288318 40.8821 0.514862C27.04 1.3101 13.6151 8.10635 1.3443 21.1941C0.384327 22.1706 0.385362 23.7305 1.36185 24.6905ZM93.6565 46.8019C94.5206 49.0935 95.1045 51.345 95.2757 53.4858C95.489 56.2083 94.9639 58.7328 92.8421 60.527C92.4825 60.8263 92.0446 61.2444 91.6851 61.5438C91.4147 60.5984 90.9469 58.7389 90.94 57.2007C90.9405 53.7674 91.721 49.6818 93.2876 45.8767C93.4349 46.1956 93.5526 46.4948 93.6565 46.8019Z" fill="#4D2C5E"/>
</svg>
