<svg width="34" height="40" viewBox="0 0 34 40" fill="none" xmlns="http://www.w3.org/2000/svg">
<path d="M24.9551 0.0200023C24.8701 -0.0749977 21.8076 0.0575023 19.1426 2.95C16.4776 5.84 16.8876 9.155 16.9476 9.24C17.0076 9.325 20.7476 9.4575 23.1351 6.095C25.5226 2.7325 25.0401 0.117502 24.9551 0.0200023ZM33.2401 29.3525C33.1201 29.1125 27.4276 26.2675 27.9576 20.7975C28.4876 15.325 32.1451 13.825 32.2026 13.6625C32.2601 13.5 30.7101 11.6875 29.0676 10.77C27.8616 10.1231 26.5269 9.75252 25.1601 9.685C24.8901 9.6775 23.9526 9.4475 22.0251 9.975C20.7551 10.3225 17.8926 11.4475 17.1051 11.4925C16.3151 11.5375 13.9651 10.1875 11.4376 9.83C9.82006 9.5175 8.10506 10.1575 6.87756 10.65C5.65256 11.14 3.32256 12.535 1.69256 16.2425C0.0625587 19.9475 0.915059 25.8175 1.52506 27.6425C2.13506 29.465 3.08756 32.4525 4.70756 34.6325C6.14756 37.0925 8.05756 38.8 8.85506 39.38C9.65256 39.96 11.9026 40.345 13.4626 39.5475C14.7176 38.7775 16.9826 38.335 17.8776 38.3675C18.7701 38.4 20.5301 38.7525 22.3326 39.715C23.7601 40.2075 25.1101 40.0025 26.4626 39.4525C27.8151 38.9 29.7726 36.805 32.0576 32.5575C32.9251 30.5825 33.3201 29.515 33.2401 29.3525Z" fill="black"/>
<path d="M24.9551 0.0200023C24.8701 -0.0749977 21.8076 0.0575023 19.1426 2.95C16.4776 5.84 16.8876 9.155 16.9476 9.24C17.0076 9.325 20.7476 9.4575 23.1351 6.095C25.5226 2.7325 25.0401 0.117502 24.9551 0.0200023ZM33.2401 29.3525C33.1201 29.1125 27.4276 26.2675 27.9576 20.7975C28.4876 15.325 32.1451 13.825 32.2026 13.6625C32.2601 13.5 30.7101 11.6875 29.0676 10.77C27.8616 10.1231 26.5269 9.75252 25.1601 9.685C24.8901 9.6775 23.9526 9.4475 22.0251 9.975C20.7551 10.3225 17.8926 11.4475 17.1051 11.4925C16.3151 11.5375 13.9651 10.1875 11.4376 9.83C9.82006 9.5175 8.10506 10.1575 6.87756 10.65C5.65256 11.14 3.32256 12.535 1.69256 16.2425C0.0625587 19.9475 0.915059 25.8175 1.52506 27.6425C2.13506 29.465 3.08756 32.4525 4.70756 34.6325C6.14756 37.0925 8.05756 38.8 8.85506 39.38C9.65256 39.96 11.9026 40.345 13.4626 39.5475C14.7176 38.7775 16.9826 38.335 17.8776 38.3675C18.7701 38.4 20.5301 38.7525 22.3326 39.715C23.7601 40.2075 25.1101 40.0025 26.4626 39.4525C27.8151 38.9 29.7726 36.805 32.0576 32.5575C32.9251 30.5825 33.3201 29.515 33.2401 29.3525Z" fill="black"/>
</svg>
